<?xml version="1.0" encoding="UTF-8" standalone="no"?>
<!-- Created with Inkscape (http://www.inkscape.org/) -->

<svg
   xmlns:dc="http://purl.org/dc/elements/1.1/"
   xmlns:cc="http://creativecommons.org/ns#"
   xmlns:rdf="http://www.w3.org/1999/02/22-rdf-syntax-ns#"
   xmlns:svg="http://www.w3.org/2000/svg"
   xmlns="http://www.w3.org/2000/svg"
   xmlns:xlink="http://www.w3.org/1999/xlink"
   xmlns:sodipodi="http://sodipodi.sourceforge.net/DTD/sodipodi-0.dtd"
   xmlns:inkscape="http://www.inkscape.org/namespaces/inkscape"
   width="512"
   height="512"
   id="svg2"
   version="1.1"
   inkscape:version="0.48.2 r9819"
   sodipodi:docname="korgi.svg">
  <defs
     id="defs4">
    <linearGradient
       id="linearGradient3774">
      <stop
         style="stop-color:#c6c6bf;stop-opacity:1;"
         offset="0"
         id="stop3776" />
      <stop
         style="stop-color:#fffff6;stop-opacity:1;"
         offset="1"
         id="stop3778" />
    </linearGradient>
    <linearGradient
       inkscape:collect="always"
       xlink:href="#linearGradient3774"
       id="linearGradient3784"
       x1="0"
       y1="796.36218"
       x2="512"
       y2="796.36218"
       gradientUnits="userSpaceOnUse"
       gradientTransform="matrix(0.98841755,0,0,0.98841754,-1049.3931,-531.13435)" />
  </defs>
  <sodipodi:namedview
     id="base"
     pagecolor="#ffffff"
     bordercolor="#666666"
     borderopacity="1.0"
     inkscape:pageopacity="0.0"
     inkscape:pageshadow="2"
     inkscape:zoom="1"
     inkscape:cx="153.1574"
     inkscape:cy="339.63025"
     inkscape:document-units="px"
     inkscape:current-layer="layer1"
     showgrid="false"
     inkscape:window-width="1529"
     inkscape:window-height="909"
     inkscape:window-x="120"
     inkscape:window-y="58"
     inkscape:window-maximized="0" />
  <metadata
     id="metadata7">
    <rdf:RDF>
      <cc:Work
         rdf:about="">
        <dc:format>image/svg+xml</dc:format>
        <dc:type
           rdf:resource="http://purl.org/dc/dcmitype/StillImage" />
        <dc:title />
      </cc:Work>
    </rdf:RDF>
  </metadata>
  <g
     inkscape:label="Layer 1"
     inkscape:groupmode="layer"
     id="layer1"
     transform="translate(0,-540.36218)">
    <rect
       style="fill:url(#linearGradient3784);fill-opacity:1;fill-rule:nonzero;stroke:#000000;stroke-width:7.90734053;stroke-linecap:round;stroke-linejoin:round;stroke-miterlimit:4;stroke-opacity:1;stroke-dasharray:none"
       id="rect2985"
       width="504.10065"
       height="504.10068"
       x="-1048.4084"
       y="3.9536703"
       transform="matrix(0,-1,1,0,0,0)"
       ry="65.235565" />
    <path
       id="path3760"
       d="M 398.0625,631.61218 C 339.86566,631.54823 285.34568,647.26091 238.46875,674.70593 223.34679,663.19162 204.47347,656.36218 184,656.36218 c -49.70563,0 -90,40.29437 -90,90 0,22.3785 8.17064,42.84891 21.6875,58.59375 -21.96069,43.15606 -34.381018,92.0055 -34.4375,143.78125 l 316.5,0.375 1,-317.5 c -0.21943,-7e-4 -0.46807,2.4e-4 -0.6875,0 z"
       style="fill:#000000;fill-opacity:1;fill-rule:nonzero;stroke:#000000;stroke-width:2.497154;stroke-linecap:round;stroke-linejoin:round;stroke-miterlimit:4;stroke-opacity:1;stroke-dasharray:none"
       inkscape:connector-curvature="0" />
    <path
       style="fill:#b86c3b;fill-opacity:1;fill-rule:nonzero;stroke:#000000;stroke-width:3;stroke-linecap:round;stroke-linejoin:round;stroke-miterlimit:4;stroke-opacity:1;stroke-dasharray:none"
       d="m 413.3125,638.36218 c -58.19684,-0.0639 -112.71682,15.64873 -159.59375,43.09375 -15.12196,-11.51431 -33.99528,-18.34375 -54.46875,-18.34375 -49.70563,0 -90,40.29437 -90,90 0,22.3785 8.17064,42.84891 21.6875,58.59375 -21.96069,43.15606 -34.381018,92.0055 -34.4375,143.78125 l 316.5,0.375 1,-317.5 c -0.21943,-7e-4 -0.46807,2.4e-4 -0.6875,0 z"
       id="path3786"
       inkscape:connector-curvature="0" />
    <path
       style="fill:#ffffff;fill-opacity:1;stroke:#000000;stroke-width:3;stroke-linejoin:round;stroke-miterlimit:4;stroke-opacity:1;stroke-dasharray:none"
       d="m 133.90625,691.39343 c -15.28121,16.12989 -24.65625,37.90201 -24.65625,61.875 0,22.3785 8.17064,42.84891 21.6875,58.59375 C 108.97681,855.01822 96.556482,903.86773 96.5,955.64343 l 182.25,0.21875 c 0.3241,-5.81404 0.5,-11.68253 0.5,-17.59375 0,-113.33457 -60.50741,-209.89872 -145.34375,-246.875 z"
       id="path3762"
       inkscape:connector-curvature="0" />
  </g>
</svg>
