<?xml version="1.0" encoding="UTF-8" standalone="no"?>
<!-- Created with Inkscape (http://www.inkscape.org/) -->

<svg
   xmlns:dc="http://purl.org/dc/elements/1.1/"
   xmlns:cc="http://creativecommons.org/ns#"
   xmlns:rdf="http://www.w3.org/1999/02/22-rdf-syntax-ns#"
   xmlns:svg="http://www.w3.org/2000/svg"
   xmlns="http://www.w3.org/2000/svg"
   xmlns:xlink="http://www.w3.org/1999/xlink"
   xmlns:sodipodi="http://sodipodi.sourceforge.net/DTD/sodipodi-0.dtd"
   xmlns:inkscape="http://www.inkscape.org/namespaces/inkscape"
   width="512"
   height="512"
   id="svg2"
   version="1.1"
   inkscape:version="0.48.2 r9819"
   sodipodi:docname="korgi.svg">
  <defs
     id="defs4">
    <linearGradient
       id="linearGradient3774">
      <stop
         style="stop-color:#c6c6bf;stop-opacity:1;"
         offset="0"
         id="stop3776" />
      <stop
         style="stop-color:#fffff6;stop-opacity:1;"
         offset="1"
         id="stop3778" />
    </linearGradient>
    <linearGradient
       inkscape:collect="always"
       xlink:href="#linearGradient3774"
       id="linearGradient3784"
       x1="0"
       y1="796.36218"
       x2="512"
       y2="796.36218"
       gradientUnits="userSpaceOnUse"
       gradientTransform="matrix(0.98841755,0,0,0.98841754,-1049.3931,-531.13435)" />
  </defs>
  <sodipodi:namedview
     id="base"
     pagecolor="#ffffff"
     bordercolor="#666666"
     borderopacity="1.0"
     inkscape:pageopacity="0.0"
     inkscape:pageshadow="2"
     inkscape:zoom="0.5"
     inkscape:cx="88.009997"
     inkscape:cy="216.97763"
     inkscape:document-units="px"
     inkscape:current-layer="layer1"
     showgrid="false"
     inkscape:window-width="1095"
     inkscape:window-height="599"
     inkscape:window-x="120"
     inkscape:window-y="58"
     inkscape:window-maximized="0" />
  <metadata
     id="metadata7">
    <rdf:RDF>
      <cc:Work
         rdf:about="">
        <dc:format>image/svg+xml</dc:format>
        <dc:type
           rdf:resource="http://purl.org/dc/dcmitype/StillImage" />
        <dc:title />
      </cc:Work>
    </rdf:RDF>
  </metadata>
  <g
     inkscape:label="Layer 1"
     inkscape:groupmode="layer"
     id="layer1"
     transform="translate(0,-540.36218)">
    <rect
       style="fill:url(#linearGradient3784);fill-opacity:1;fill-rule:nonzero;stroke:#000000;stroke-width:7.90734053;stroke-linecap:round;stroke-linejoin:round;stroke-miterlimit:4;stroke-opacity:1;stroke-dasharray:none"
       id="rect2985"
       width="504.10065"
       height="504.10068"
       x="-1048.4084"
       y="3.9536703"
       transform="matrix(0,-1,1,0,0,0)"
       ry="65.235565" />
    <path
       style="fill:#000000;fill-opacity:1;fill-rule:nonzero;stroke:#000000;stroke-width:2.497154;stroke-linecap:round;stroke-linejoin:round;stroke-miterlimit:4;stroke-opacity:1;stroke-dasharray:none"
       d="m 402.07511,631.611 c -63.70294,-0.07 -123.00457,18.75871 -172.69387,51.19164 -10.78508,-11.47814 -25.98291,-18.8006 -42.97188,-19.22287 l -2.08096,-0.026 c -32.90023,0.30468 -59.63444,26.64922 -60.45196,59.54149 -0.43374,17.45108 6.50762,33.35264 17.97432,44.76667 C 106.23536,819.1598 85.32194,881.4989 85.24858,948.7494 l 316.48838,0.3642 1.01446,-317.50258 c -0.21943,-7e-4 -0.45688,2.4e-4 -0.67631,0 z"
       id="path3786-9"
       inkscape:connector-curvature="0" />
    <path
       style="fill:#b86c3b;fill-opacity:1;fill-rule:nonzero;stroke:#000000;stroke-width:2.497154;stroke-linecap:round;stroke-linejoin:round;stroke-miterlimit:4;stroke-opacity:1;stroke-dasharray:none"
       d="m 414.07511,637.61098 c -63.70294,-0.07 -123.00457,18.75871 -172.69387,51.19164 -10.78508,-11.47814 -25.98291,-18.8006 -42.97188,-19.22287 l -2.08096,-0.026 c -32.90023,0.30468 -59.63444,26.64922 -60.45196,59.54149 -0.43374,17.45108 6.50762,33.35264 17.97432,44.76667 -35.6154,51.29786 -56.52882,113.63693 -56.602183,180.88751 l 316.488383,0.36416 1.01446,-317.50258 c -0.21943,-7e-4 -0.45688,2.4e-4 -0.67631,0 z"
       id="path3786"
       inkscape:connector-curvature="0" />
  </g>
</svg>
